<svg width="96" height="104" viewBox="0 0 96 104" fill="none" xmlns="http://www.w3.org/2000/svg">
<path d="M16.7267 72.4581C33.8608 88.9242 59.0715 94.6925 65.5288 95.7287C61.1024 65.1581 31.6571 43.6358 0.333976 50.0471C-3.8746 86.4675 32.4607 113.683 65.9868 100.117C65.9856 100.091 65.983 100.066 65.9814 100.04C30.4112 95.7001 16.7267 72.4581 16.7267 72.4581Z" fill="#019934"/>
<path d="M95.6679 50.047C92.1035 49.3173 88.4125 48.9338 84.6324 48.9338C71.914 48.9338 60.2179 53.2842 50.9254 60.562C55.6268 64.8821 59.6166 69.9689 62.7111 75.6221C70.0246 71.4764 81.3647 64.4808 85.3569 58.7737C80.3571 67.8796 74.4308 72.051 64.4033 78.9737C67.204 84.976 69.0297 91.5306 69.6433 98.4494C85.2751 90.5368 96.0001 74.3357 96.0001 55.6161C95.9998 53.7306 95.879 51.8751 95.6679 50.047Z" fill="#019934"/>
<path d="M34.9525 30.9602L38.4285 51.318C40.9558 52.4447 43.3801 53.7714 45.6836 55.2761L39.2483 30.0473C44.0924 27.8041 47.0582 20.5794 45.4406 12.9692C43.6477 4.53343 36.9033 -1.17984 30.3755 0.207605C23.8479 1.59505 20.0106 9.55775 21.8032 17.9935C23.4208 25.604 29.0695 30.9967 34.9525 30.9602Z" fill="#F6921E"/>
<path d="M57.5157 31.3782L51.5238 54.869C53.7968 53.4265 56.158 52.1692 58.5981 51.1094L61.811 32.2918C67.1482 32.212 71.1609 26.4711 72.779 18.8604C73.3083 16.3696 74.5339 9.63822 73.6503 5.41725C73.5809 5.08194 73.2859 4.84148 72.9427 4.84148C72.6003 4.84101 72.3055 5.08003 72.2331 5.41486L68.9279 20.969C68.8564 21.3071 68.6524 21.6033 68.3624 21.7904C68.0729 21.9794 67.7197 22.0447 67.381 21.9732L67.3062 21.957C66.602 21.8073 66.1525 21.1148 66.3012 20.4106L69.5919 4.93299C69.7551 4.1673 69.2666 3.41543 68.5009 3.25266L68.4751 3.24742C68.1074 3.16925 67.724 3.24027 67.4087 3.44498C67.0934 3.64945 66.8732 3.97117 66.795 4.33841L63.5044 19.816C63.4317 20.1547 63.2294 20.4499 62.9389 20.6387C62.6494 20.8276 62.2962 20.8929 61.9575 20.821L61.8837 20.8048C61.1795 20.6549 60.7291 19.9626 60.8794 19.2584L64.1684 3.78052C64.2465 3.41305 64.175 3.02937 63.971 2.71456C63.7659 2.39927 63.4441 2.17835 63.0774 2.09971C62.2971 1.93456 61.5314 2.43192 61.3661 3.21143L58.0821 18.6633C58.0099 19.0019 57.8066 19.2982 57.5166 19.486C57.2261 19.6742 56.8727 19.7395 56.5353 19.668L56.4604 19.6518C55.7562 19.5026 55.3068 18.8096 55.4562 18.1049L58.7766 2.48506C58.8459 2.16072 58.6848 1.83114 58.3874 1.68505C58.0902 1.53897 57.7301 1.61332 57.5157 1.86617C54.7493 5.13342 53.0099 11.7292 52.4141 14.5315C50.7967 22.1422 52.1263 29.0191 57.5157 31.3782Z" fill="#F6921E"/>
</svg>
